<svg width="48" height="46" viewBox="0 0 48 46" fill="none" xmlns="http://www.w3.org/2000/svg">
<path d="M40.2907 16.8553L40.8274 15.6155C41.771 13.4223 43.4992 11.6638 45.6709 10.6871L47.3269 9.94457C47.5278 9.85179 47.698 9.70312 47.8173 9.51619C47.9366 9.32926 48 9.1119 48 8.88989C48 8.66788 47.9366 8.45053 47.8173 8.26359C47.698 8.07666 47.5278 7.928 47.3269 7.83522L45.7626 7.13648C43.5363 6.13192 41.7785 4.30842 40.8514 2.04162L40.2994 0.703294C40.2183 0.495982 40.0769 0.317999 39.8936 0.192549C39.7103 0.0670987 39.4936 0 39.2718 0C39.0499 0 38.8332 0.0670987 38.6499 0.192549C38.4666 0.317999 38.3252 0.495982 38.2442 0.703294L37.6922 2.03943C36.766 4.30666 35.009 6.13094 32.7832 7.13648L31.2166 7.83741C31.0164 7.93045 30.8468 8.0791 30.7279 8.26579C30.6091 8.45248 30.5459 8.66942 30.5459 8.89099C30.5459 9.11255 30.6091 9.32949 30.7279 9.51618C30.8468 9.70287 31.0164 9.85152 31.2166 9.94457L32.8748 10.6849C35.0461 11.6626 36.7735 13.4219 37.7162 15.6155L38.2529 16.8553C38.6456 17.7621 39.8958 17.7621 40.2907 16.8553ZM8.72686 10.9543C8.38815 10.9543 8.05409 11.0335 7.75114 11.1856C7.44819 11.3377 7.18466 11.5585 6.98143 11.8305L0.436097 20.5921C0.132883 20.9981 -0.0204835 21.4973 0.00219887 22.0042C0.0248812 22.5112 0.222205 22.9946 0.560458 23.3717L20.1965 45.2756C20.4011 45.5036 20.6511 45.6859 20.9303 45.8107C21.2096 45.9355 21.5119 46 21.8175 46C22.1232 46 22.4255 45.9355 22.7047 45.8107C22.984 45.6859 23.234 45.5036 23.4386 45.2756L43.0746 23.3717L39.8325 20.4409L21.8175 40.5356L5.00256 21.7793L9.81775 15.3351H28.3629V10.9543H8.72686Z" fill="#CE7E3F"/>
</svg>
