<svg width="40" height="58" viewBox="0 0 40 58" fill="none" xmlns="http://www.w3.org/2000/svg">
<path d="M11.4286 10.15C11.4286 9.76544 11.5791 9.39662 11.847 9.1247C12.1149 8.85277 12.4783 8.7 12.8571 8.7H27.1429C27.5217 8.7 27.8851 8.85277 28.153 9.1247C28.4209 9.39662 28.5714 9.76544 28.5714 10.15C28.5714 10.5346 28.4209 10.9034 28.153 11.1753C27.8851 11.4472 27.5217 11.6 27.1429 11.6H12.8571C12.4783 11.6 12.1149 11.4472 11.847 11.1753C11.5791 10.9034 11.4286 10.5346 11.4286 10.15ZM7.14286 17.4C6.76398 17.4 6.40061 17.5528 6.13271 17.8247C5.8648 18.0966 5.71429 18.4654 5.71429 18.85C5.71429 19.2346 5.8648 19.6034 6.13271 19.8753C6.40061 20.1472 6.76398 20.3 7.14286 20.3H32.8571C33.236 20.3 33.5994 20.1472 33.8673 19.8753C34.1352 19.6034 34.2857 19.2346 34.2857 18.85C34.2857 18.4654 34.1352 18.0966 33.8673 17.8247C33.5994 17.5528 33.236 17.4 32.8571 17.4H7.14286ZM5.71429 24.65C5.71429 24.2654 5.8648 23.8966 6.13271 23.6247C6.40061 23.3528 6.76398 23.2 7.14286 23.2H32.8571C33.236 23.2 33.5994 23.3528 33.8673 23.6247C34.1352 23.8966 34.2857 24.2654 34.2857 24.65C34.2857 25.0346 34.1352 25.4034 33.8673 25.6753C33.5994 25.9472 33.236 26.1 32.8571 26.1H7.14286C6.76398 26.1 6.40061 25.9472 6.13271 25.6753C5.8648 25.4034 5.71429 25.0346 5.71429 24.65ZM7.14286 29C6.76398 29 6.40061 29.1528 6.13271 29.4247C5.8648 29.6966 5.71429 30.0654 5.71429 30.45C5.71429 30.8346 5.8648 31.2034 6.13271 31.4753C6.40061 31.7472 6.76398 31.9 7.14286 31.9H32.8571C33.236 31.9 33.5994 31.7472 33.8673 31.4753C34.1352 31.2034 34.2857 30.8346 34.2857 30.45C34.2857 30.0654 34.1352 29.6966 33.8673 29.4247C33.5994 29.1528 33.236 29 32.8571 29H7.14286Z" fill="#CE7E3F"/>
<path fill-rule="evenodd" clip-rule="evenodd" d="M40 46.4C40 47.9383 39.398 49.4135 38.3263 50.5012C37.2547 51.5889 35.8012 52.2 34.2857 52.2H30V58L25.7143 55.825L21.4286 58V52.2H5.71429C4.19876 52.2 2.74531 51.5889 1.67368 50.5012C0.602039 49.4135 0 47.9383 0 46.4V5.8C0 4.26174 0.602039 2.78649 1.67368 1.69878C2.74531 0.611069 4.19876 0 5.71429 0H34.2857C35.8012 0 37.2547 0.611069 38.3263 1.69878C39.398 2.78649 40 4.26174 40 5.8V46.4ZM5.71429 2.9C4.95652 2.9 4.2298 3.20553 3.69398 3.74939C3.15816 4.29325 2.85714 5.03087 2.85714 5.8V46.4C2.85714 47.1691 3.15816 47.9068 3.69398 48.4506C4.2298 48.9945 4.95652 49.3 5.71429 49.3H21.4286V45.8867C20.7012 45.0496 20.2272 44.0172 20.0636 42.9134C19.9 41.8096 20.0536 40.6814 20.5061 39.664C20.9585 38.6467 21.6906 37.7835 22.6144 37.178C23.5382 36.5724 24.6146 36.2504 25.7143 36.2504C26.814 36.2504 27.8903 36.5724 28.8142 37.178C29.738 37.7835 30.47 38.6467 30.9225 39.664C31.375 40.6814 31.5286 41.8096 31.365 42.9134C31.2013 44.0172 30.7274 45.0496 30 45.8867V49.3H34.2857C35.0435 49.3 35.7702 48.9945 36.306 48.4506C36.8418 47.9068 37.1429 47.1691 37.1429 46.4V5.8C37.1429 5.03087 36.8418 4.29325 36.306 3.74939C35.7702 3.20553 35.0435 2.9 34.2857 2.9H5.71429ZM27.1429 47.6673C26.2058 47.9129 25.2227 47.9129 24.2857 47.6673V53.3078L25.7143 52.5828L27.1429 53.3078V47.6673ZM25.7143 44.95C26.472 44.95 27.1988 44.6445 27.7346 44.1006C28.2704 43.5568 28.5714 42.8191 28.5714 42.05C28.5714 41.2809 28.2704 40.5432 27.7346 39.9994C27.1988 39.4555 26.472 39.15 25.7143 39.15C24.9565 39.15 24.2298 39.4555 23.694 39.9994C23.1582 40.5432 22.8571 41.2809 22.8571 42.05C22.8571 42.8191 23.1582 43.5568 23.694 44.1006C24.2298 44.6445 24.9565 44.95 25.7143 44.95Z" fill="#CE7E3F"/>
</svg>
