<svg width="71" height="56" viewBox="0 0 71 56" fill="none" xmlns="http://www.w3.org/2000/svg">
<path d="M30.2828 3.95833L27.7083 0C9.89583 11.9732 0 26.5208 0 38.494C0 50.0713 8.512 55.5148 15.7352 55.5148C24.8393 55.5148 31.2708 47.7945 31.2708 39.6815C31.2708 32.8542 26.9167 27.0148 21.0773 24.8362C19.3958 24.2408 17.8125 23.7468 17.8125 20.8778C17.8125 17.2172 20.4852 11.7768 30.2828 3.95833ZM69.5685 3.95833L66.994 0C49.3778 11.9732 39.2857 26.5208 39.2857 38.494C39.2857 50.0713 47.994 55.5148 55.2172 55.5148C64.4195 55.5148 70.9523 47.7945 70.9523 39.6815C70.9523 32.8542 66.5 27.0148 60.4612 24.8362C58.7797 24.2408 57.2945 23.7468 57.2945 20.8778C57.2945 17.2172 60.0653 11.7737 69.5653 3.95517L69.5685 3.95833Z" fill="#293B48"/>
</svg>
