<svg width="48" height="46" viewBox="0 0 48 46" fill="none" xmlns="http://www.w3.org/2000/svg">
<path d="M43.2 9.68425C43.2 8.40004 42.6939 7.16879 41.7938 6.26072C40.8936 5.35264 39.673 4.84212 38.4 4.84212H9.6C8.32696 4.84212 7.10643 5.35264 6.20625 6.26072C5.30608 7.16879 4.8 8.40004 4.8 9.68425V29.0527L4.82344 29.5303C4.93235 30.6392 5.41836 31.6815 6.20625 32.4763C7.10642 33.3844 8.32696 33.8949 9.6 33.8949H14.4C15.7255 33.8949 16.8 34.9788 16.8 36.3159V39.3021L25.1648 34.2401L25.4555 34.0911C25.753 33.9626 26.0741 33.8949 26.4 33.8949H38.4L38.8734 33.8712C39.9726 33.7614 41.0059 33.2711 41.7938 32.4763C42.5816 31.6815 43.0677 30.6392 43.1766 29.5303L43.2 29.0527V9.68425ZM28.8 21.7896C30.1255 21.7896 31.2 22.8735 31.2 24.2106C31.2 25.5477 30.1255 26.6317 28.8 26.6317H14.4C13.0745 26.6317 12 25.5477 12 24.2106C12 22.8735 13.0745 21.7896 14.4 21.7896H28.8ZM33.6 12.1053C34.9255 12.1053 36 13.1893 36 14.5264C36 15.8635 34.9255 16.9474 33.6 16.9474H14.4C13.0745 16.9474 12 15.8635 12 14.5264C12 13.1893 13.0745 12.1053 14.4 12.1053H33.6ZM48 29.0527C48 31.6212 46.9879 34.0837 45.1875 35.8998C43.3872 37.716 40.9461 38.737 38.4 38.737H27.0656L15.6352 45.655C14.8937 46.1038 13.9688 46.1155 13.2164 45.6857C12.4645 45.2558 12 44.451 12 43.5791V38.737H9.6C7.05392 38.737 4.61285 37.716 2.8125 35.8998C1.01215 34.0837 0 31.6212 0 29.0527V9.68425C0 7.11583 1.01215 4.65333 2.8125 2.83718C4.61285 1.02103 7.05392 0 9.6 0H38.4C40.9461 0 43.3872 1.02103 45.1875 2.83718C46.9879 4.65333 48 7.11583 48 9.68425V29.0527Z" fill="#CE7E3F"/>
</svg>
